<?xml version="1.0" encoding="utf-8"?>
<!-- Generator: Adobe Illustrator 23.1.0, SVG Export Plug-In . SVG Version: 6.00 Build 0)  -->
<svg version="1.1" id="レイヤー_1" xmlns="http://www.w3.org/2000/svg" xmlns:xlink="http://www.w3.org/1999/xlink" x="0px"
	 y="0px" viewBox="0 0 300 52" style="enable-background:new 0 0 300 52;" xml:space="preserve">
<g>
	<polygon points="10.5,41.6 10.5,0 0,0 0,52 42,52 42,41.6 	"/>
	<polygon points="117.7,41.6 117.7,0 107.2,0 107.2,52 149.2,52 149.2,41.6 	"/>
	<polygon points="170.2,41.6 170.2,0 159.7,0 159.7,52 201.8,52 201.8,41.6 	"/>
	<path d="M82,0v10.4V26v5.2c0,5.7-4.7,10.4-10.5,10.4c-5.8,0-10.5-4.7-10.5-10.4V26V10.4V0H50.4v20.8V26v5.2
		c0,11.5,9.4,20.8,21,20.8h0c11.6,0,21-9.3,21-20.8V26v-5.2V0H82z"/>
	<rect x="218" y="26" width="5.3" height="26"/>
	<polygon points="251.7,26 251.7,43.3 241.2,26 235.9,26 235.9,52 241.2,52 241.2,34.6 251.7,52 256.9,52 256.9,26 	"/>
	<rect x="294.7" y="46.8" width="5.3" height="5.2"/>
	<path d="M287.7,29.8L287.7,29.8c-5.1-5.1-13.4-5.1-18.6,0c-5.1,5.1-5.1,13.3,0,18.4v0c5.1,5.1,13.4,5.1,18.6,0l-3.7-3.7
		c-3.1,3-8.1,3-11.1,0v0c-3.1-3-3.1-8,0-11c3.1-3,8.1-3,11.1,0v0L287.7,29.8z"/>
</g>
</svg>
